<svg xmlns="http://www.w3.org/2000/svg" width="48" height="48" viewBox="0 0 48 48">
  <path fill="#000000" opacity=".18" d="M17.6 43.5h5.1c4.1 0 7.6-1.5 10.3-4.3l7.6-8a4.8 4.8 0 0 0-6.9-6.7l-1.8 1.9V9.5a5.2 5.2 0 0 0-10.4 0v20.4l-1.7-.9a4.6 4.6 0 0 0-6.4 6.1l1.4 2.7c.7 1.4 1.7 2.4 2.8 3.2v2.5Z"/>
  <path fill="#ffffff" stroke="#111827" stroke-linecap="round" stroke-linejoin="round" stroke-width="3" d="M19.4 40.1h2.4c3.6 0 6.6-1.3 9-3.8l7.6-8a3.1 3.1 0 0 0-4.5-4.3l-4.7 4.9V8.1a3.6 3.6 0 0 0-7.2 0v22.8l-4.2-2.4a3.1 3.1 0 0 0-4.3 4.1l1.4 2.7c.9 1.8 2.3 3.4 4.5 4.8Z"/>
  <path fill="none" stroke="#111827" stroke-linecap="round" stroke-linejoin="round" stroke-width="3" d="M17.3 12.4h-4.7m6.8-5.7-3.2-3.2m12.7 3.2 3.2-3.2"/>
  <path fill="#ffffff" stroke="#111827" stroke-linejoin="round" stroke-width="3" d="M18.2 40.1h12.1l-1 4.9H19l-.8-4.9Z"/>
</svg>
